<svg width="37" height="17" viewBox="0 0 37 17" fill="none" xmlns="http://www.w3.org/2000/svg">
<g clip-path="url(#clip0_13176_34397)">
<path fill-rule="evenodd" clip-rule="evenodd" d="M28.5464 16.0142L26.0335 11.8778L25.9986 11.8203H14.2969L16.8446 16.0142H28.5464Z" fill="#0A0A0A"/>
<path d="M10.9112 6.97138L5.30231 15.9999H0L8.02561 2.78855C9.55859 0.251428 9.97339 0 14.3018 0C17.8488 0 18.7654 0.167459 19.8158 1.60795C20.0525 1.93261 20.2961 2.32191 20.578 2.78855L22.5484 6.032L26.0163 11.741L26.0513 11.7985L28.5687 15.9424L28.6036 15.9999H23.3013L19.815 10.388L17.6924 6.97138C17.4566 6.5906 17.2618 6.28195 17.0816 6.032C16.4072 5.09666 15.9385 4.98282 14.3018 4.98282C12.2278 4.98282 12.0294 5.16568 10.9112 6.97138Z" fill="#0A0A0A"/>
<path d="M36.4453 16.0138H32.0452L22.4492 0.015625H26.8493L36.4453 16.0138Z" fill="#0A0A0A"/>
</g>
<defs>
<clipPath id="clip0_13176_34397">
<rect width="37" height="17" fill="white"/>
</clipPath>
</defs>
</svg>
