<svg width="182" height="17" viewBox="0 0 182 17" fill="none" xmlns="http://www.w3.org/2000/svg">
<path fill-rule="evenodd" clip-rule="evenodd" d="M28.5458 16.0147L26.0329 11.8783L25.998 11.8208H14.2963L16.844 16.0147H28.5458Z" fill="#0A0A0A"/>
<path d="M10.9112 6.97138L5.30231 15.9999H0L8.02561 2.78855C9.55859 0.251428 9.97339 0 14.3018 0C17.8488 0 18.7654 0.167459 19.8158 1.60795C20.0525 1.93261 20.2961 2.32191 20.578 2.78855L22.5484 6.032L26.0163 11.741L26.0513 11.7985L28.5687 15.9424L28.6036 15.9999H23.3013L19.815 10.388L17.6924 6.97138C17.4566 6.5906 17.2618 6.28195 17.0816 6.032C16.4072 5.09666 15.9385 4.98282 14.3018 4.98282C12.2278 4.98282 12.0294 5.16568 10.9112 6.97138Z" fill="#0A0A0A"/>
<path d="M36.4445 16.0128H32.0444L22.4484 0.0146484H26.8485L36.4445 16.0128Z" fill="#0A0A0A"/>
<path d="M175.12 9.57252L171.38 2.81654L167.64 9.57252H175.12ZM181.838 15.0716C181.934 15.2549 181.934 15.4905 181.838 15.6738C181.743 15.8833 181.552 15.9881 181.338 15.9881H179.003C178.789 15.9881 178.622 15.8833 178.527 15.7L177.026 13.0029H165.734L164.233 15.7C164.138 15.8833 163.947 15.9881 163.757 15.9881H161.398C161.208 15.9881 161.017 15.8833 160.922 15.6738C160.826 15.4905 160.826 15.2549 160.922 15.0716L169.117 0.302693C169.212 0.119392 169.379 0.0146484 169.593 0.0146484H173.167C173.357 0.0146484 173.548 0.119392 173.643 0.302693L181.838 15.0716Z" fill="#0A0A0A"/>
<path d="M140.103 11.7983C139.508 10.1486 139.341 8.26322 139.555 6.50876C139.722 5.22565 140.079 3.96873 140.699 2.86892C141.58 1.29776 143.01 0.0146484 144.773 0.0146484H157.28C157.589 0.0146484 157.827 0.302693 157.827 0.643111V2.84273C157.827 3.18315 157.589 3.44501 157.28 3.44501L144.582 3.47119C143.176 3.86398 142.581 6.66588 142.581 8.00136C142.581 8.78694 142.748 9.70345 142.986 10.4105C143.248 11.2484 143.82 12.5577 144.773 12.5577H148.417H157.28C157.589 12.5577 157.827 12.8458 157.827 13.1862V15.3858C157.827 15.5429 157.78 15.7 157.661 15.8048C157.565 15.9357 157.423 15.9881 157.28 15.9881L143.915 15.8833C143.867 15.8833 143.82 15.8833 143.772 15.8571C143.438 15.7786 143.129 15.6215 142.819 15.4644C141.509 14.705 140.627 13.2909 140.103 11.7983Z" fill="#0A0A0A"/>
<path d="M132.296 0.643111C132.296 0.302693 132.534 0.0146484 132.844 0.0146484H134.845C135.155 0.0146484 135.417 0.302693 135.417 0.643111V15.3858C135.417 15.7262 135.155 15.9881 134.845 15.9881H132.844C132.534 15.9881 132.296 15.7262 132.296 15.3858V0.643111Z" fill="#0A0A0A"/>
<path d="M105.761 0.643111C105.761 0.302693 105.999 0.0146484 106.309 0.0146484H108.763C108.93 0.0146484 109.073 0.0932052 109.192 0.224135L116.577 9.72963L123.962 0.224135C124.081 0.0932052 124.224 0.0146484 124.391 0.0146484H126.844C127.154 0.0146484 127.416 0.302693 127.416 0.643111V15.3858C127.416 15.7262 127.154 15.9881 126.844 15.9881H124.843C124.534 15.9881 124.272 15.7262 124.272 15.3858V5.12091L118.316 12.7672C118.197 12.9243 118.054 13.0029 117.887 13.0029H115.267C115.1 13.0029 114.957 12.9243 114.838 12.7672L108.882 5.12091V15.3858C108.882 15.7262 108.62 15.9881 108.31 15.9881H106.309C105.999 15.9881 105.761 15.7262 105.761 15.3858V0.643111Z" fill="#0A0A0A"/>
<path d="M97.5404 12.5581C98.946 12.1653 99.5415 9.36342 99.5415 8.02793C99.5415 7.24236 99.351 6.32585 99.1127 5.59264C98.8507 4.78088 98.2789 3.47158 97.326 3.47158C93.7287 3.47158 90.1077 3.47158 86.4866 3.47158C85.081 3.86437 84.4854 6.66626 84.4854 8.00175C84.4854 8.78733 84.6522 9.70383 84.8904 10.4109C85.1525 11.2488 85.7242 12.5581 86.6772 12.5581C90.2982 12.5581 93.9193 12.5581 97.5404 12.5581ZM82.0079 11.8249C81.4123 10.1752 81.2455 8.31598 81.4361 6.58771C81.6029 5.27841 81.984 3.9953 82.6034 2.8693C83.4849 1.29815 84.9143 -0.0111511 86.6772 0.0150345C90.5126 0.0412201 94.372 0.0935914 98.2075 0.145964C98.2551 0.145964 98.3027 0.145964 98.3504 0.17215C98.6839 0.250708 98.9936 0.407823 99.3033 0.591126C100.59 1.35052 101.495 2.73837 102.019 4.20479C102.591 5.82831 102.781 7.7137 102.567 9.44198C102.424 10.7513 102.043 12.0344 101.4 13.1604C100.518 14.7315 99.0889 16.0146 97.326 16.0146C93.4905 15.9885 89.655 15.9099 85.7957 15.8837C85.7481 15.8837 85.7242 15.8837 85.6766 15.8575C85.3431 15.7528 85.0095 15.6219 84.6999 15.4386C83.4134 14.6792 82.532 13.2913 82.0079 11.8249Z" fill="#0A0A0A"/>
<path d="M68.2137 3.44501H61.1383C60.8286 3.44501 60.5903 3.18315 60.5903 2.84273V0.643111C60.5903 0.302693 60.8286 0.0146484 61.1383 0.0146484H78.4099C78.7196 0.0146484 78.9578 0.302693 78.9578 0.643111V2.84273C78.9578 3.18315 78.7196 3.44501 78.4099 3.44501H71.3345V15.3858C71.3345 15.7262 71.0724 15.9881 70.7627 15.9881H68.7616C68.4519 15.9881 68.2137 15.7262 68.2137 15.3858V3.44501Z" fill="#0A0A0A"/>
<path d="M56.7145 9.57252L52.9743 2.81654L49.2341 9.57252H56.7145ZM63.4325 15.0716C63.5278 15.2549 63.5278 15.4905 63.4325 15.6738C63.3372 15.8833 63.1467 15.9881 62.9322 15.9881H60.5976C60.3832 15.9881 60.2164 15.8833 60.1211 15.7L58.6203 13.0029H47.3282L45.8274 15.7C45.7321 15.8833 45.5415 15.9881 45.3509 15.9881H42.9924C42.8019 15.9881 42.6113 15.8833 42.516 15.6738C42.4207 15.4905 42.4207 15.2549 42.516 15.0716L50.7111 0.302693C50.8064 0.119392 50.9731 0.0146484 51.1875 0.0146484H54.761C54.9516 0.0146484 55.1421 0.119392 55.2374 0.302693L63.4325 15.0716Z" fill="#0A0A0A"/>
</svg>
